<?xml version="1.0" encoding="UTF-8" standalone="no"?>
<!-- Created with Inkscape (http://www.inkscape.org/) -->

<svg
   width="123.87635mm"
   height="123.86942mm"
   viewBox="0 0 123.87635 123.86942"
   version="1.1"
   id="svg871"
   xml:space="preserve"
   inkscape:export-filename="bitmap.png"
   inkscape:export-xdpi="96"
   inkscape:export-ydpi="96"
   inkscape:version="1.2.2 (732a01da63, 2022-12-09)"
   sodipodi:docname="cap.svg"
   xmlns:inkscape="http://www.inkscape.org/namespaces/inkscape"
   xmlns:sodipodi="http://sodipodi.sourceforge.net/DTD/sodipodi-0.dtd"
   xmlns="http://www.w3.org/2000/svg"
   xmlns:svg="http://www.w3.org/2000/svg"><sodipodi:namedview
     id="namedview873"
     pagecolor="#ffffff"
     bordercolor="#000000"
     borderopacity="0.25"
     inkscape:showpageshadow="2"
     inkscape:pageopacity="0.0"
     inkscape:pagecheckerboard="0"
     inkscape:deskcolor="#d1d1d1"
     inkscape:document-units="mm"
     showgrid="false"
     inkscape:zoom="0.70710678"
     inkscape:cx="-1.4142136"
     inkscape:cy="261.62951"
     inkscape:window-width="1920"
     inkscape:window-height="1009"
     inkscape:window-x="-8"
     inkscape:window-y="-8"
     inkscape:window-maximized="1"
     inkscape:current-layer="layer1" /><defs
     id="defs868" /><g
     inkscape:label="Layer 1"
     inkscape:groupmode="layer"
     id="layer1"
     transform="translate(-0.02447955,-0.01081927)"><path
       style="fill:#9d4edd;fill-opacity:1;stroke-width:0.853281;stroke-dasharray:none"
       d="m 9.4357872,118.05846 3.0335188,1.6954 3.768286,1.61498 4.971605,1.01332 8.99322,0.72832 c 0,0 12.033184,0.63333 12.159851,0.63333 0.126664,0 9.124635,0.13643 9.124635,0.13643 h 21.003165 l 9.6731,-0.2687 15.584438,-0.76131 6.135264,-0.62696 3.20526,-0.56944 2.27997,-0.82332 2.82199,-1.339 2.10479,-1.32109 1.67936,-1.41066 1.79132,-2.01523 1.38826,-2.14958 1.50023,-3.06762 0.82848,-2.10481 0.62697,-2.70936 0.11195,-0.89566 0.42544,-4.265567 0.17913,-2.8773 0.55979,-11.038981 0.2463,-5.62025 0.22392,-5.28438 0.0448,-4.61263 v -7.16526 -10.74789 l -0.47022,-10.591145 -0.15674,-7.25482 -0.35826,-6.47113 -0.51501,-6.94134 -0.64935,-3.62742 -0.76131,-2.37349 -1.52261,-2.84371 -1.5674,-2.4854474 -1.50023,-1.74653 -2.01523,-1.88088 -2.53023,-1.63457 -2.86611,-1.3434903 -2.93327,-0.87327 -2.97806,-0.55978 -7.523534,-0.515 -5.261977,-0.29109003 -6.918961,-0.17913 -16.88314,-0.58218 -21.451,0.11196 -19.749247,0.80609 -9.270052,1.50022003 -3.246758,1.25392 -2.418276,1.6121903 -3.3139318,2.64218 -3.3104877,5.1644674 c 0,0 -1.013321,2.59664 -1.044989,2.8183 -0.03167,0.22167 -1.203317,5.19327 -1.203317,5.19327 l -0.474996,3.67329 -0.25332795,5.63659 -0.538326,7.21991 v 7.599905 l -0.19,20.45641 0.03167,10.44987 0.791657,14.88315 0.50665795,7.663241 0.284999,5.383257 1.044985,4.17996 1.424983,3.57829 1.804977,2.69163 z"
       id="path1847" /></g></svg>
